<?xml version="1.0" encoding="UTF-8" standalone="no"?>
<svg
   xmlns:dc="http://purl.org/dc/elements/1.1/"
   xmlns:cc="http://creativecommons.org/ns#"
   xmlns:rdf="http://www.w3.org/1999/02/22-rdf-syntax-ns#"
   xmlns:svg="http://www.w3.org/2000/svg"
   xmlns="http://www.w3.org/2000/svg"
   xmlns:sodipodi="http://sodipodi.sourceforge.net/DTD/sodipodi-0.dtd"
   xmlns:inkscape="http://www.inkscape.org/namespaces/inkscape"
   width="301.33301"
   height="170"
   viewBox="0 0 301.33301 170"
   fill="none"
   version="1.1"
   id="svg22"
   sodipodi:docname="mdb-logo-leaf.svg"
   inkscape:version="1.0.2-2 (e86c870879, 2021-01-15)">
  <metadata
     id="metadata28">
    <rdf:RDF>
      <cc:Work
         rdf:about="">
        <dc:format>image/svg+xml</dc:format>
        <dc:type
           rdf:resource="http://purl.org/dc/dcmitype/StillImage" />
        <dc:title></dc:title>
      </cc:Work>
    </rdf:RDF>
  </metadata>
  <defs
     id="defs26" />
  <sodipodi:namedview
     pagecolor="#ffffff"
     bordercolor="#666666"
     borderopacity="1"
     objecttolerance="10"
     gridtolerance="10"
     guidetolerance="10"
     inkscape:pageopacity="0"
     inkscape:pageshadow="2"
     inkscape:window-width="1920"
     inkscape:window-height="1010"
     id="namedview24"
     showgrid="false"
     fit-margin-top="0"
     fit-margin-left="0"
     fit-margin-right="0"
     fit-margin-bottom="0"
     inkscape:zoom="1.1880342"
     inkscape:cx="467.99693"
     inkscape:cy="100.99281"
     inkscape:window-x="-1926"
     inkscape:window-y="111"
     inkscape:window-maximized="1"
     inkscape:current-layer="svg22" />
  <g
     id="g32"
     transform="translate(-317.33401,-16)">
    <rect
       x="317.33401"
       y="16"
       width="301.33301"
       height="170"
       fill="#f5f7fa"
       id="rect14" />
    <path
       d="m 477.589,57.4126 c -4.633,-5.5456 -8.623,-11.1778 -9.438,-12.3476 -0.086,-0.0867 -0.214,-0.0867 -0.3,0 -0.815,1.1698 -4.805,6.802 -9.438,12.3476 -39.767,51.1664 6.263,85.6964 6.263,85.6964 l 0.386,0.26 c 0.344,5.329 1.202,12.998 1.202,12.998 h 1.716 1.716 c 0,0 0.858,-7.626 1.201,-12.998 l 0.386,-0.303 c 0.043,0.043 46.073,-34.487 6.306,-85.6534 z m -9.609,84.9604 c 0,0 -2.06,-1.777 -2.617,-2.686 V 139.6 l 2.488,-55.7159 c 0,-0.1733 0.257,-0.1733 0.257,0 l 2.488,55.7159 v 0.087 c -0.557,0.909 -2.616,2.686 -2.616,2.686 z"
       fill="#00684a"
       id="path16" />
  </g>
</svg>
